<mxfile host="app.diagrams.net" modified="2022-03-09T22:08:42.618Z" agent="5.0 (Windows NT 10.0; Win64; x64) AppleWebKit/537.36 (KHTML, like Gecko) Chrome/99.0.4844.51 Safari/537.36" etag="ZjiW_go1DZBaVbl53kqj" version="17.1.0" type="github">
  <diagram id="C5RBs43oDa-KdzZeNtuy" name="Page-1">
    <mxGraphModel dx="1185" dy="638" grid="1" gridSize="10" guides="1" tooltips="1" connect="1" arrows="1" fold="1" page="1" pageScale="1" pageWidth="827" pageHeight="1169" math="0" shadow="0">
      <root>
        <mxCell id="WIyWlLk6GJQsqaUBKTNV-0" />
        <mxCell id="WIyWlLk6GJQsqaUBKTNV-1" parent="WIyWlLk6GJQsqaUBKTNV-0" />
        <mxCell id="-F7onKCHbFlTFxF6Y8K6-0" value="SÃ©rie" style="rounded=0;whiteSpace=wrap;html=1;" vertex="1" parent="WIyWlLk6GJQsqaUBKTNV-1">
          <mxGeometry x="220" y="140" width="60" height="30" as="geometry" />
        </mxCell>
        <mxCell id="-F7onKCHbFlTFxF6Y8K6-1" value="Plateau" style="rounded=0;whiteSpace=wrap;html=1;" vertex="1" parent="WIyWlLk6GJQsqaUBKTNV-1">
          <mxGeometry x="90" y="300" width="60" height="30" as="geometry" />
        </mxCell>
        <mxCell id="-F7onKCHbFlTFxF6Y8K6-2" value="&lt;span style=&quot;font-weight: normal&quot;&gt;Carte&lt;/span&gt;" style="rounded=0;whiteSpace=wrap;html=1;fontStyle=1" vertex="1" parent="WIyWlLk6GJQsqaUBKTNV-1">
          <mxGeometry x="600" y="140" width="60" height="30" as="geometry" />
        </mxCell>
        <mxCell id="-F7onKCHbFlTFxF6Y8K6-3" value="Main" style="rounded=0;whiteSpace=wrap;html=1;" vertex="1" parent="WIyWlLk6GJQsqaUBKTNV-1">
          <mxGeometry x="540" y="270" width="60" height="30" as="geometry" />
        </mxCell>
        <mxCell id="-F7onKCHbFlTFxF6Y8K6-5" value="Joueur" style="rounded=0;whiteSpace=wrap;html=1;" vertex="1" parent="WIyWlLk6GJQsqaUBKTNV-1">
          <mxGeometry x="384" y="390" width="60" height="30" as="geometry" />
        </mxCell>
        <mxCell id="-F7onKCHbFlTFxF6Y8K6-6" value="appli.Application" style="rounded=0;whiteSpace=wrap;html=1;" vertex="1" parent="WIyWlLk6GJQsqaUBKTNV-1">
          <mxGeometry x="780" y="500" width="60" height="30" as="geometry" />
        </mxCell>
        <mxCell id="-F7onKCHbFlTFxF6Y8K6-8" value="Use" style="endArrow=open;endSize=12;dashed=1;html=1;rounded=0;exitX=0;exitY=1;exitDx=0;exitDy=0;entryX=1;entryY=1;entryDx=0;entryDy=0;" edge="1" parent="WIyWlLk6GJQsqaUBKTNV-1" source="-F7onKCHbFlTFxF6Y8K6-6" target="-F7onKCHbFlTFxF6Y8K6-9">
          <mxGeometry width="160" relative="1" as="geometry">
            <mxPoint x="240" y="635" as="sourcePoint" />
            <mxPoint x="390" y="629.6600000000001" as="targetPoint" />
            <Array as="points">
              <mxPoint x="600" y="560" />
            </Array>
          </mxGeometry>
        </mxCell>
        <mxCell id="-F7onKCHbFlTFxF6Y8K6-9" value="Paquet" style="rounded=0;whiteSpace=wrap;html=1;" vertex="1" parent="WIyWlLk6GJQsqaUBKTNV-1">
          <mxGeometry x="360" y="530" width="60" height="30" as="geometry" />
        </mxCell>
        <mxCell id="-F7onKCHbFlTFxF6Y8K6-12" value="Use" style="endArrow=open;endSize=12;dashed=1;html=1;rounded=0;exitX=0;exitY=0;exitDx=0;exitDy=0;entryX=0.5;entryY=1;entryDx=0;entryDy=0;" edge="1" parent="WIyWlLk6GJQsqaUBKTNV-1" source="-F7onKCHbFlTFxF6Y8K6-6" target="-F7onKCHbFlTFxF6Y8K6-5">
          <mxGeometry width="160" relative="1" as="geometry">
            <mxPoint x="354" y="440" as="sourcePoint" />
            <mxPoint x="284" y="380" as="targetPoint" />
            <Array as="points">
              <mxPoint x="660" y="460" />
              <mxPoint x="414" y="460" />
            </Array>
          </mxGeometry>
        </mxCell>
        <mxCell id="-F7onKCHbFlTFxF6Y8K6-14" value="Use" style="endArrow=open;endSize=12;dashed=1;html=1;rounded=0;exitX=0.25;exitY=1;exitDx=0;exitDy=0;" edge="1" parent="WIyWlLk6GJQsqaUBKTNV-1" source="-F7onKCHbFlTFxF6Y8K6-6">
          <mxGeometry width="160" relative="1" as="geometry">
            <mxPoint x="474" y="470" as="sourcePoint" />
            <mxPoint x="90" y="330" as="targetPoint" />
            <Array as="points">
              <mxPoint x="795" y="580" />
              <mxPoint x="510" y="580" />
              <mxPoint x="90" y="580" />
            </Array>
          </mxGeometry>
        </mxCell>
        <mxCell id="-F7onKCHbFlTFxF6Y8K6-17" value="Use" style="endArrow=open;endSize=12;dashed=1;html=1;rounded=0;exitX=1;exitY=0.5;exitDx=0;exitDy=0;entryX=0;entryY=0.5;entryDx=0;entryDy=0;" edge="1" parent="WIyWlLk6GJQsqaUBKTNV-1" source="-F7onKCHbFlTFxF6Y8K6-5" target="-F7onKCHbFlTFxF6Y8K6-4">
          <mxGeometry width="160" relative="1" as="geometry">
            <mxPoint x="384" y="330" as="sourcePoint" />
            <mxPoint x="544" y="330" as="targetPoint" />
          </mxGeometry>
        </mxCell>
        <mxCell id="-F7onKCHbFlTFxF6Y8K6-19" value="&lt;span style=&quot;font-weight: normal&quot;&gt;Partie&lt;/span&gt;" style="rounded=0;whiteSpace=wrap;html=1;fontStyle=1" vertex="1" parent="WIyWlLk6GJQsqaUBKTNV-1">
          <mxGeometry x="180" y="460" width="60" height="30" as="geometry" />
        </mxCell>
        <mxCell id="-F7onKCHbFlTFxF6Y8K6-21" value="Use" style="endArrow=open;endSize=12;dashed=1;html=1;rounded=0;entryX=0.25;entryY=1;entryDx=0;entryDy=0;exitX=0;exitY=0.5;exitDx=0;exitDy=0;" edge="1" parent="WIyWlLk6GJQsqaUBKTNV-1" source="-F7onKCHbFlTFxF6Y8K6-6" target="-F7onKCHbFlTFxF6Y8K6-19">
          <mxGeometry x="-0.2422" width="160" relative="1" as="geometry">
            <mxPoint x="130" y="610" as="sourcePoint" />
            <mxPoint x="430" y="460" as="targetPoint" />
            <Array as="points">
              <mxPoint x="195" y="512" />
            </Array>
            <mxPoint as="offset" />
          </mxGeometry>
        </mxCell>
        <mxCell id="-F7onKCHbFlTFxF6Y8K6-28" value="1" style="endArrow=open;html=1;endSize=12;startArrow=diamondThin;startSize=14;startFill=0;edgeStyle=orthogonalEdgeStyle;align=left;verticalAlign=bottom;rounded=0;exitX=0;exitY=0;exitDx=0;exitDy=0;entryX=0.75;entryY=1;entryDx=0;entryDy=0;" edge="1" parent="WIyWlLk6GJQsqaUBKTNV-1" source="-F7onKCHbFlTFxF6Y8K6-19" target="-F7onKCHbFlTFxF6Y8K6-1">
          <mxGeometry x="-0.8857" relative="1" as="geometry">
            <mxPoint x="350" y="350" as="sourcePoint" />
            <mxPoint x="510" y="350" as="targetPoint" />
            <Array as="points">
              <mxPoint x="150" y="460" />
              <mxPoint x="150" y="390" />
              <mxPoint x="135" y="390" />
            </Array>
            <mxPoint as="offset" />
          </mxGeometry>
        </mxCell>
        <mxCell id="-F7onKCHbFlTFxF6Y8K6-30" value="Use" style="endArrow=open;endSize=12;dashed=1;html=1;rounded=0;entryX=0.67;entryY=1.021;entryDx=0;entryDy=0;entryPerimeter=0;exitX=0.25;exitY=0;exitDx=0;exitDy=0;" edge="1" parent="WIyWlLk6GJQsqaUBKTNV-1" source="-F7onKCHbFlTFxF6Y8K6-9" target="-F7onKCHbFlTFxF6Y8K6-0">
          <mxGeometry width="160" relative="1" as="geometry">
            <mxPoint x="700" y="410" as="sourcePoint" />
            <mxPoint x="510" y="350" as="targetPoint" />
          </mxGeometry>
        </mxCell>
        <mxCell id="-F7onKCHbFlTFxF6Y8K6-31" value="Use" style="endArrow=open;endSize=12;dashed=1;html=1;rounded=0;exitX=0.75;exitY=0;exitDx=0;exitDy=0;entryX=1;entryY=1;entryDx=0;entryDy=0;" edge="1" parent="WIyWlLk6GJQsqaUBKTNV-1" source="-F7onKCHbFlTFxF6Y8K6-9" target="-F7onKCHbFlTFxF6Y8K6-5">
          <mxGeometry width="160" relative="1" as="geometry">
            <mxPoint x="350" y="350" as="sourcePoint" />
            <mxPoint x="460" y="420" as="targetPoint" />
            <Array as="points">
              <mxPoint x="430" y="500" />
            </Array>
          </mxGeometry>
        </mxCell>
        <mxCell id="-F7onKCHbFlTFxF6Y8K6-32" value="*" style="endArrow=open;html=1;endSize=12;startArrow=diamondThin;startSize=14;startFill=0;edgeStyle=orthogonalEdgeStyle;align=left;verticalAlign=bottom;rounded=0;exitX=1;exitY=0.5;exitDx=0;exitDy=0;entryX=0.75;entryY=1;entryDx=0;entryDy=0;" edge="1" parent="WIyWlLk6GJQsqaUBKTNV-1" source="-F7onKCHbFlTFxF6Y8K6-9" target="-F7onKCHbFlTFxF6Y8K6-2">
          <mxGeometry x="-0.936" relative="1" as="geometry">
            <mxPoint x="350" y="350" as="sourcePoint" />
            <mxPoint x="650" y="190" as="targetPoint" />
            <Array as="points">
              <mxPoint x="645" y="545" />
            </Array>
            <mxPoint as="offset" />
          </mxGeometry>
        </mxCell>
        <mxCell id="-F7onKCHbFlTFxF6Y8K6-34" value="Use" style="endArrow=open;endSize=12;dashed=1;html=1;rounded=0;exitX=0;exitY=0.25;exitDx=0;exitDy=0;entryX=1;entryY=1;entryDx=0;entryDy=0;" edge="1" parent="WIyWlLk6GJQsqaUBKTNV-1" source="-F7onKCHbFlTFxF6Y8K6-5" target="-F7onKCHbFlTFxF6Y8K6-1">
          <mxGeometry width="160" relative="1" as="geometry">
            <mxPoint x="276" y="410" as="sourcePoint" />
            <mxPoint x="436" y="410" as="targetPoint" />
          </mxGeometry>
        </mxCell>
        <mxCell id="-F7onKCHbFlTFxF6Y8K6-35" value="Use" style="endArrow=open;endSize=12;dashed=1;html=1;rounded=0;entryX=0;entryY=1;entryDx=0;entryDy=0;exitX=0.25;exitY=0;exitDx=0;exitDy=0;" edge="1" parent="WIyWlLk6GJQsqaUBKTNV-1" source="-F7onKCHbFlTFxF6Y8K6-5" target="-F7onKCHbFlTFxF6Y8K6-2">
          <mxGeometry width="160" relative="1" as="geometry">
            <mxPoint x="350" y="420" as="sourcePoint" />
            <mxPoint x="510" y="420" as="targetPoint" />
            <Array as="points">
              <mxPoint x="490" y="270" />
            </Array>
          </mxGeometry>
        </mxCell>
        <mxCell id="-F7onKCHbFlTFxF6Y8K6-36" value="Use" style="endArrow=open;endSize=12;dashed=1;html=1;rounded=0;entryX=0.409;entryY=0.055;entryDx=0;entryDy=0;entryPerimeter=0;" edge="1" parent="WIyWlLk6GJQsqaUBKTNV-1" target="-F7onKCHbFlTFxF6Y8K6-19">
          <mxGeometry x="0.0484" y="9" width="160" relative="1" as="geometry">
            <mxPoint x="390" y="400" as="sourcePoint" />
            <mxPoint x="250" y="460" as="targetPoint" />
            <Array as="points">
              <mxPoint x="290" y="420" />
              <mxPoint x="210" y="420" />
              <mxPoint x="210" y="440" />
            </Array>
            <mxPoint as="offset" />
          </mxGeometry>
        </mxCell>
        <mxCell id="-F7onKCHbFlTFxF6Y8K6-38" value="1" style="endArrow=open;html=1;endSize=12;startArrow=diamondThin;startSize=14;startFill=0;edgeStyle=orthogonalEdgeStyle;align=left;verticalAlign=bottom;rounded=0;exitX=1;exitY=0.75;exitDx=0;exitDy=0;entryX=0;entryY=1;entryDx=0;entryDy=0;" edge="1" parent="WIyWlLk6GJQsqaUBKTNV-1" source="-F7onKCHbFlTFxF6Y8K6-19" target="-F7onKCHbFlTFxF6Y8K6-5">
          <mxGeometry x="-0.9117" y="10" relative="1" as="geometry">
            <mxPoint x="350" y="420" as="sourcePoint" />
            <mxPoint x="420" y="410" as="targetPoint" />
            <Array as="points">
              <mxPoint x="260" y="482" />
              <mxPoint x="430" y="482" />
            </Array>
            <mxPoint as="offset" />
          </mxGeometry>
        </mxCell>
        <mxCell id="-F7onKCHbFlTFxF6Y8K6-39" value="Use" style="endArrow=open;endSize=12;dashed=1;html=1;rounded=0;exitX=0.75;exitY=0;exitDx=0;exitDy=0;entryX=0.25;entryY=1;entryDx=0;entryDy=0;" edge="1" parent="WIyWlLk6GJQsqaUBKTNV-1" source="-F7onKCHbFlTFxF6Y8K6-5" target="-F7onKCHbFlTFxF6Y8K6-3">
          <mxGeometry width="160" relative="1" as="geometry">
            <mxPoint x="350" y="420" as="sourcePoint" />
            <mxPoint x="510" y="420" as="targetPoint" />
          </mxGeometry>
        </mxCell>
        <mxCell id="-F7onKCHbFlTFxF6Y8K6-40" value="1" style="endArrow=open;html=1;endSize=12;startArrow=diamondThin;startSize=14;startFill=0;edgeStyle=orthogonalEdgeStyle;align=left;verticalAlign=bottom;rounded=0;exitX=0.5;exitY=0;exitDx=0;exitDy=0;entryX=0;entryY=0.25;entryDx=0;entryDy=0;" edge="1" parent="WIyWlLk6GJQsqaUBKTNV-1" source="-F7onKCHbFlTFxF6Y8K6-5" target="-F7onKCHbFlTFxF6Y8K6-3">
          <mxGeometry x="-0.867" y="-4" relative="1" as="geometry">
            <mxPoint x="350" y="420" as="sourcePoint" />
            <mxPoint x="510" y="420" as="targetPoint" />
            <mxPoint as="offset" />
          </mxGeometry>
        </mxCell>
        <mxCell id="-F7onKCHbFlTFxF6Y8K6-42" value="Use" style="endArrow=open;endSize=12;dashed=1;html=1;rounded=0;exitX=1;exitY=1;exitDx=0;exitDy=0;entryX=1;entryY=0.75;entryDx=0;entryDy=0;" edge="1" parent="WIyWlLk6GJQsqaUBKTNV-1" source="-F7onKCHbFlTFxF6Y8K6-3" target="-F7onKCHbFlTFxF6Y8K6-2">
          <mxGeometry width="160" relative="1" as="geometry">
            <mxPoint x="350" y="420" as="sourcePoint" />
            <mxPoint x="510" y="420" as="targetPoint" />
            <Array as="points">
              <mxPoint x="680" y="300" />
              <mxPoint x="680" y="285" />
              <mxPoint x="680" y="163" />
            </Array>
          </mxGeometry>
        </mxCell>
        <mxCell id="-F7onKCHbFlTFxF6Y8K6-43" value="1" style="endArrow=open;html=1;endSize=12;startArrow=diamondThin;startSize=14;startFill=0;edgeStyle=orthogonalEdgeStyle;align=left;verticalAlign=bottom;rounded=0;exitX=1;exitY=0.5;exitDx=0;exitDy=0;entryX=0.5;entryY=1;entryDx=0;entryDy=0;" edge="1" parent="WIyWlLk6GJQsqaUBKTNV-1" source="-F7onKCHbFlTFxF6Y8K6-3" target="-F7onKCHbFlTFxF6Y8K6-2">
          <mxGeometry x="-0.7421" relative="1" as="geometry">
            <mxPoint x="450" y="184.66" as="sourcePoint" />
            <mxPoint x="640" y="150" as="targetPoint" />
            <Array as="points">
              <mxPoint x="630" y="285" />
            </Array>
            <mxPoint as="offset" />
          </mxGeometry>
        </mxCell>
        <mxCell id="-F7onKCHbFlTFxF6Y8K6-44" value="Use" style="endArrow=open;endSize=12;dashed=1;html=1;rounded=0;exitX=1;exitY=1;exitDx=0;exitDy=0;entryX=0.25;entryY=0;entryDx=0;entryDy=0;" edge="1" parent="WIyWlLk6GJQsqaUBKTNV-1" source="-F7onKCHbFlTFxF6Y8K6-0" target="-F7onKCHbFlTFxF6Y8K6-2">
          <mxGeometry width="160" relative="1" as="geometry">
            <mxPoint x="350" y="420" as="sourcePoint" />
            <mxPoint x="620" y="110" as="targetPoint" />
            <Array as="points">
              <mxPoint x="580" y="110" />
              <mxPoint x="610" y="110" />
            </Array>
          </mxGeometry>
        </mxCell>
        <mxCell id="-F7onKCHbFlTFxF6Y8K6-45" value="*" style="endArrow=open;html=1;endSize=12;startArrow=diamondThin;startSize=14;startFill=0;edgeStyle=orthogonalEdgeStyle;align=left;verticalAlign=bottom;rounded=0;exitX=0.5;exitY=0;exitDx=0;exitDy=0;entryX=0.5;entryY=0;entryDx=0;entryDy=0;" edge="1" parent="WIyWlLk6GJQsqaUBKTNV-1" source="-F7onKCHbFlTFxF6Y8K6-0" target="-F7onKCHbFlTFxF6Y8K6-2">
          <mxGeometry x="-1" y="-10" relative="1" as="geometry">
            <mxPoint x="350" y="420" as="sourcePoint" />
            <mxPoint x="510" y="420" as="targetPoint" />
            <Array as="points">
              <mxPoint x="250" y="100" />
              <mxPoint x="630" y="100" />
            </Array>
            <mxPoint as="offset" />
          </mxGeometry>
        </mxCell>
        <mxCell id="-F7onKCHbFlTFxF6Y8K6-47" value="1" style="endArrow=open;html=1;endSize=12;startArrow=diamondThin;startSize=14;startFill=0;edgeStyle=orthogonalEdgeStyle;align=left;verticalAlign=bottom;rounded=0;exitX=0;exitY=0.5;exitDx=0;exitDy=0;entryX=0;entryY=0.75;entryDx=0;entryDy=0;" edge="1" parent="WIyWlLk6GJQsqaUBKTNV-1" source="-F7onKCHbFlTFxF6Y8K6-1" target="-F7onKCHbFlTFxF6Y8K6-0">
          <mxGeometry x="-0.8849" y="-5" relative="1" as="geometry">
            <mxPoint x="350" y="350" as="sourcePoint" />
            <mxPoint x="190" y="160" as="targetPoint" />
            <Array as="points">
              <mxPoint x="60" y="315" />
              <mxPoint x="60" y="163" />
              <mxPoint x="190" y="163" />
            </Array>
            <mxPoint as="offset" />
          </mxGeometry>
        </mxCell>
        <mxCell id="-F7onKCHbFlTFxF6Y8K6-48" value="Use" style="endArrow=open;endSize=12;dashed=1;html=1;rounded=0;exitX=1;exitY=0;exitDx=0;exitDy=0;entryX=0;entryY=0;entryDx=0;entryDy=0;" edge="1" parent="WIyWlLk6GJQsqaUBKTNV-1" source="-F7onKCHbFlTFxF6Y8K6-1" target="-F7onKCHbFlTFxF6Y8K6-2">
          <mxGeometry width="160" relative="1" as="geometry">
            <mxPoint x="350" y="350" as="sourcePoint" />
            <mxPoint x="510" y="350" as="targetPoint" />
          </mxGeometry>
        </mxCell>
        <mxCell id="-F7onKCHbFlTFxF6Y8K6-49" value="Use" style="endArrow=open;endSize=12;dashed=1;html=1;rounded=0;exitX=0.25;exitY=0;exitDx=0;exitDy=0;entryX=0.5;entryY=1;entryDx=0;entryDy=0;" edge="1" parent="WIyWlLk6GJQsqaUBKTNV-1" source="-F7onKCHbFlTFxF6Y8K6-19" target="-F7onKCHbFlTFxF6Y8K6-0">
          <mxGeometry x="-0.1183" y="-4" width="160" relative="1" as="geometry">
            <mxPoint x="350" y="350" as="sourcePoint" />
            <mxPoint x="510" y="350" as="targetPoint" />
            <mxPoint as="offset" />
          </mxGeometry>
        </mxCell>
        <mxCell id="-F7onKCHbFlTFxF6Y8K6-52" value="Use" style="endArrow=open;endSize=12;dashed=1;html=1;rounded=0;exitX=1;exitY=0;exitDx=0;exitDy=0;entryX=0;entryY=0.5;entryDx=0;entryDy=0;" edge="1" parent="WIyWlLk6GJQsqaUBKTNV-1" source="-F7onKCHbFlTFxF6Y8K6-19" target="-F7onKCHbFlTFxF6Y8K6-5">
          <mxGeometry width="160" relative="1" as="geometry">
            <mxPoint x="350" y="420" as="sourcePoint" />
            <mxPoint x="510" y="420" as="targetPoint" />
            <Array as="points">
              <mxPoint x="360" y="450" />
            </Array>
          </mxGeometry>
        </mxCell>
        <mxCell id="-F7onKCHbFlTFxF6Y8K6-53" value="1" style="endArrow=open;html=1;endSize=12;startArrow=diamondThin;startSize=14;startFill=0;edgeStyle=orthogonalEdgeStyle;align=left;verticalAlign=bottom;rounded=0;exitX=1;exitY=0.25;exitDx=0;exitDy=0;entryX=1;entryY=0.25;entryDx=0;entryDy=0;" edge="1" parent="WIyWlLk6GJQsqaUBKTNV-1" source="-F7onKCHbFlTFxF6Y8K6-5" target="-F7onKCHbFlTFxF6Y8K6-2">
          <mxGeometry x="-1" y="3" relative="1" as="geometry">
            <mxPoint x="350" y="350" as="sourcePoint" />
            <mxPoint x="680" y="160" as="targetPoint" />
            <Array as="points">
              <mxPoint x="480" y="398" />
              <mxPoint x="590" y="398" />
              <mxPoint x="590" y="340" />
              <mxPoint x="700" y="340" />
              <mxPoint x="700" y="148" />
            </Array>
          </mxGeometry>
        </mxCell>
        <mxCell id="-F7onKCHbFlTFxF6Y8K6-56" value="Use" style="endArrow=open;endSize=12;dashed=1;html=1;rounded=0;exitX=1;exitY=0.5;exitDx=0;exitDy=0;entryX=0.179;entryY=0.021;entryDx=0;entryDy=0;entryPerimeter=0;" edge="1" parent="WIyWlLk6GJQsqaUBKTNV-1" source="-F7onKCHbFlTFxF6Y8K6-1" target="-F7onKCHbFlTFxF6Y8K6-5">
          <mxGeometry width="160" relative="1" as="geometry">
            <mxPoint x="350" y="420" as="sourcePoint" />
            <mxPoint x="440" y="350" as="targetPoint" />
          </mxGeometry>
        </mxCell>
        <mxCell id="-F7onKCHbFlTFxF6Y8K6-58" value="Use" style="endArrow=open;endSize=12;dashed=1;html=1;rounded=0;exitX=0;exitY=0.25;exitDx=0;exitDy=0;entryX=0.5;entryY=1;entryDx=0;entryDy=0;" edge="1" parent="WIyWlLk6GJQsqaUBKTNV-1" source="-F7onKCHbFlTFxF6Y8K6-19" target="-F7onKCHbFlTFxF6Y8K6-1">
          <mxGeometry width="160" relative="1" as="geometry">
            <mxPoint x="350" y="480" as="sourcePoint" />
            <mxPoint x="510" y="480" as="targetPoint" />
            <Array as="points">
              <mxPoint x="120" y="470" />
            </Array>
          </mxGeometry>
        </mxCell>
        <mxCell id="-F7onKCHbFlTFxF6Y8K6-59" value="Use" style="endArrow=open;endSize=12;dashed=1;html=1;rounded=0;exitX=0.75;exitY=0;exitDx=0;exitDy=0;entryX=0;entryY=0.333;entryDx=0;entryDy=0;entryPerimeter=0;" edge="1" parent="WIyWlLk6GJQsqaUBKTNV-1" source="-F7onKCHbFlTFxF6Y8K6-19" target="-F7onKCHbFlTFxF6Y8K6-2">
          <mxGeometry width="160" relative="1" as="geometry">
            <mxPoint x="350" y="420" as="sourcePoint" />
            <mxPoint x="600" y="140" as="targetPoint" />
          </mxGeometry>
        </mxCell>
        <mxCell id="-F7onKCHbFlTFxF6Y8K6-62" value="Use" style="endArrow=open;endSize=12;dashed=1;html=1;rounded=0;entryX=0;entryY=1;entryDx=0;entryDy=0;exitX=0.5;exitY=0;exitDx=0;exitDy=0;" edge="1" parent="WIyWlLk6GJQsqaUBKTNV-1" source="-F7onKCHbFlTFxF6Y8K6-1" target="-F7onKCHbFlTFxF6Y8K6-0">
          <mxGeometry width="160" relative="1" as="geometry">
            <mxPoint x="120" y="270" as="sourcePoint" />
            <mxPoint x="180" y="190" as="targetPoint" />
          </mxGeometry>
        </mxCell>
        <mxCell id="-F7onKCHbFlTFxF6Y8K6-64" value="" style="swimlane;startSize=0;strokeWidth=3;fillColor=#d5e8d4;strokeColor=#82b366;" vertex="1" parent="WIyWlLk6GJQsqaUBKTNV-1">
          <mxGeometry x="740" y="330" width="130" height="120" as="geometry" />
        </mxCell>
        <mxCell id="-F7onKCHbFlTFxF6Y8K6-4" value="Console" style="rounded=0;whiteSpace=wrap;html=1;" vertex="1" parent="-F7onKCHbFlTFxF6Y8K6-64">
          <mxGeometry x="35" y="60" width="60" height="30" as="geometry" />
        </mxCell>
        <mxCell id="-F7onKCHbFlTFxF6Y8K6-66" value="Util" style="rounded=0;whiteSpace=wrap;html=1;strokeWidth=3;fillColor=#d5e8d4;strokeColor=#82b366;" vertex="1" parent="WIyWlLk6GJQsqaUBKTNV-1">
          <mxGeometry x="740" y="310" width="80" height="20" as="geometry" />
        </mxCell>
        <mxCell id="-F7onKCHbFlTFxF6Y8K6-67" value="" style="swimlane;startSize=0;fillColor=#ffe6cc;strokeColor=#d79b00;shadow=0;glass=0;rounded=0;strokeWidth=3;" vertex="1" parent="WIyWlLk6GJQsqaUBKTNV-1">
          <mxGeometry x="40" y="90" width="680" height="480" as="geometry" />
        </mxCell>
        <mxCell id="-F7onKCHbFlTFxF6Y8K6-71" value="*" style="text;html=1;align=center;verticalAlign=middle;resizable=0;points=[];autosize=1;strokeColor=none;fillColor=none;" vertex="1" parent="-F7onKCHbFlTFxF6Y8K6-67">
          <mxGeometry x="610" y="80" width="20" height="20" as="geometry" />
        </mxCell>
        <mxCell id="-F7onKCHbFlTFxF6Y8K6-68" value="Jeu" style="rounded=0;whiteSpace=wrap;html=1;strokeWidth=3;fillColor=#ffe6cc;strokeColor=#d79b00;" vertex="1" parent="WIyWlLk6GJQsqaUBKTNV-1">
          <mxGeometry x="40" y="70" width="80" height="20" as="geometry" />
        </mxCell>
        <mxCell id="-F7onKCHbFlTFxF6Y8K6-69" value="*" style="text;html=1;align=center;verticalAlign=middle;resizable=0;points=[];autosize=1;strokeColor=none;fillColor=none;" vertex="1" parent="WIyWlLk6GJQsqaUBKTNV-1">
          <mxGeometry x="630" y="110" width="20" height="20" as="geometry" />
        </mxCell>
        <mxCell id="-F7onKCHbFlTFxF6Y8K6-70" value="*" style="text;html=1;align=center;verticalAlign=middle;resizable=0;points=[];autosize=1;strokeColor=none;fillColor=none;" vertex="1" parent="WIyWlLk6GJQsqaUBKTNV-1">
          <mxGeometry x="610" y="170" width="20" height="20" as="geometry" />
        </mxCell>
        <mxCell id="-F7onKCHbFlTFxF6Y8K6-72" value="1" style="text;html=1;align=center;verticalAlign=middle;resizable=0;points=[];autosize=1;strokeColor=none;fillColor=none;" vertex="1" parent="WIyWlLk6GJQsqaUBKTNV-1">
          <mxGeometry x="520" y="250" width="20" height="20" as="geometry" />
        </mxCell>
        <mxCell id="-F7onKCHbFlTFxF6Y8K6-73" value="*" style="text;html=1;align=center;verticalAlign=middle;resizable=0;points=[];autosize=1;strokeColor=none;fillColor=none;" vertex="1" parent="WIyWlLk6GJQsqaUBKTNV-1">
          <mxGeometry x="380" y="430" width="20" height="20" as="geometry" />
        </mxCell>
        <mxCell id="-F7onKCHbFlTFxF6Y8K6-74" value="1" style="text;html=1;align=center;verticalAlign=middle;resizable=0;points=[];autosize=1;strokeColor=none;fillColor=none;" vertex="1" parent="WIyWlLk6GJQsqaUBKTNV-1">
          <mxGeometry x="670" y="120" width="20" height="20" as="geometry" />
        </mxCell>
        <mxCell id="-F7onKCHbFlTFxF6Y8K6-75" value="*" style="text;html=1;align=center;verticalAlign=middle;resizable=0;points=[];autosize=1;strokeColor=none;fillColor=none;" vertex="1" parent="WIyWlLk6GJQsqaUBKTNV-1">
          <mxGeometry x="190" y="130" width="20" height="20" as="geometry" />
        </mxCell>
      </root>
    </mxGraphModel>
  </diagram>
</mxfile>
